# xmcd
# Copyright (C) 1995-1998 Ti Kan
#
# Track frame offsets:
#       150
#       11836
#       25550
#       34029
#       45327
#       58402
#       71334
#       84450
#       97100
#       115555
#       128201
#       139865
#       151138
#       162234
#       180005
#
# Disc length: 2537 seconds
#
# Revision: 0
# Processed by: cddbd v1.5.2PL0 Copyright (c) Steve Scherf et al.
# Submitted via: CD-Transfer v1.0
#
DISCID=b309e70f
DTITLE=Dylan, Bob - Tradicional
DYEAR=09
DGENRE=
TTITLE0=Here Comes Santa Claus
TTITLE1=Do You Hear, What I Hear?
TTITLE2=Winter Wonderland
TTITLE3=Hark The Herald Angels Sing
TTITLE4=I'll Be Home For Christmas
TTITLE5=Little Drummer Boy
TTITLE6=Christmas Blues, The
TTITLE7=O' Come All Ye Faithfull (Adeste Fideles)
TTITLE8=Have Yourself A Marry Little Christmas
TTITLE9=Must Be Santa
TTITLE10=Silver Bells
TTITLE11=First Noel, The
TTITLE12=Christmas Island
TTITLE13=Christmas Song, The
TTITLE14=O Little Town Of Bethlehem
EXTD=
EXTT0=
EXTT1=
EXTT2=
EXTT3=
EXTT4=
EXTT5=
EXTT6=
EXTT7=
EXTT8=
EXTT9=
EXTT10=
EXTT11=
EXTT12=
EXTT13=
EXTT14=
PLAYORDER=
